HIERARCHY
ROOT Hips
{
  OFFSET 51.9991 55.3476 -7.81417
  CHANNELS 6 Xposition Yposition Zposition Zrotation Xrotation Yrotation
  JOINT spine
  {
    OFFSET 0 6.84637 0.3937
    CHANNELS 3 Zrotation Xrotation Yrotation
    JOINT spine1
    {
      OFFSET 0 9.49621 0
      CHANNELS 3 Zrotation Xrotation Yrotation
      JOINT spine2
      {
        OFFSET 0 9.09909 0
        CHANNELS 3 Zrotation Xrotation Yrotation
        JOINT Neck
        {
          OFFSET 0 23.3612 1.11378
          CHANNELS 3 Zrotation Xrotation Yrotation
          JOINT Head
          {
            OFFSET 0 7.05802 0
            CHANNELS 3 Zrotation Xrotation Yrotation
            End Site
            {
              OFFSET 0 17.0844 -5.63419
            }
          }
        }
        JOINT RightShoulder
        {
          OFFSET -3.83136 9.82631 -0.533491
          CHANNELS 3 Zrotation Xrotation Yrotation
          JOINT RightArm
          {
            OFFSET 0 12.8881 0
            CHANNELS 3 Zrotation Xrotation Yrotation
            JOINT RightArmRoll
            {
              OFFSET 0 6.50617 0
              CHANNELS 3 Zrotation Xrotation Yrotation
              JOINT RightForeArm
              {
                OFFSET 0 18.9501 0
                CHANNELS 3 Zrotation Xrotation Yrotation
                JOINT RightForeArmRoll
                {
                  OFFSET 0 7.30092 0
                  CHANNELS 3 Zrotation Xrotation Yrotation
                  JOINT RightHand
                  {
                    OFFSET 0 14.6514 0
                    CHANNELS 3 Zrotation Xrotation Yrotation
                    End Site
                    {
                      OFFSET 0 0 0
                    }
                  }
                }
              }
            }
          }
        }
        JOINT LeftShoulder
        {
          OFFSET 3.83136 9.82631 -0.533491
          CHANNELS 3 Zrotation Xrotation Yrotation
          JOINT LeftArm
          {
            OFFSET 0 12.8881 0
            CHANNELS 3 Zrotation Xrotation Yrotation
            JOINT LeftArmRoll
            {
              OFFSET 0 6.50617 0
              CHANNELS 3 Zrotation Xrotation Yrotation
              JOINT LeftForeArm
              {
                OFFSET 0 18.9501 0
                CHANNELS 3 Zrotation Xrotation Yrotation
                JOINT LeftForeArmRoll
                {
                  OFFSET 0 7.30092 0
                  CHANNELS 3 Zrotation Xrotation Yrotation
                  JOINT LeftHand
                  {
                    OFFSET 0 14.6514 0
                    CHANNELS 3 Zrotation Xrotation Yrotation
                    End Site
                    {
                      OFFSET 0 0 0
                    }
                  }
                }
              }
            }
          }
        }
      }
    }
  }
  JOINT RightUpLeg
  {
    OFFSET -6.06837 -1.11278 -0.933477
    CHANNELS 3 Zrotation Xrotation Yrotation
    JOINT RightUpLegRoll
    {
      OFFSET 0 17.1796 0
      CHANNELS 3 Zrotation Xrotation Yrotation
      JOINT RightLeg
      {
        OFFSET 0 -21.2743 0
        CHANNELS 3 Zrotation Xrotation Yrotation
        JOINT RightLegRoll
        {
          OFFSET 0 21.3439 0
          CHANNELS 3 Zrotation Xrotation Yrotation
          JOINT RightFoot
          {
            OFFSET 0 17.7652 0
            CHANNELS 3 Zrotation Xrotation Yrotation
            JOINT RightToeBase
            {
              OFFSET 0 14.8508 0
              CHANNELS 3 Zrotation Xrotation Yrotation
              End Site
              {
                OFFSET 0.0062947 7.19213 -0.829005
              }
            }
          }
        }
      }
    }
  }
  JOINT LeftUpLeg
  {
    OFFSET 6.06837 -1.11278 -0.933477
    CHANNELS 3 Zrotation Xrotation Yrotation
    JOINT LeftUpLegRoll
    {
      OFFSET 0 17.1797 0
      CHANNELS 3 Zrotation Xrotation Yrotation
      JOINT LeftLeg
      {
        OFFSET 0 21.2742 0
        CHANNELS 3 Zrotation Xrotation Yrotation
        JOINT LeftLegRoll
        {
          OFFSET 0 21.5412 0
          CHANNELS 3 Zrotation Xrotation Yrotation
          JOINT LeftFoot
          {
            OFFSET 0 17.5679 0
            CHANNELS 3 Zrotation Xrotation Yrotation
            JOINT LeftToeBase
            {
              OFFSET 0 14.8508 0
              CHANNELS 3 Zrotation Xrotation Yrotation
              End Site
              {
                OFFSET -0.0282102 7.19214 -0.829005
              }
            }
          }
        }
      }
    }
  }
}
MOTION
Frames: 4
Frame Time: 0.00208333
49.8893 86.8655 21.094 0.527223 3.63092 -4.0978 1.20945 -2.13389 1.02826 2.44406 -0.260551 1.92725 2.42128 1.38328 1.88679 -18.5607 3.64562 0.170799 13.2684 9.21551 -3.88062 49.9183 -6.87783 -3.85426 135.567 44.3006 -29.9837 6.37058e-007 -3.35235e-006 -1.951e-006 27.9832 0.198146 1.59256 1.10182e-005 1.46842e-006 -3.02918 8.03042 -4.95137 0.697722 -79.4396 -8.72978 5.76288 -101.78 40.705 -3.25714 -1.12596e-006 3.74549e-006 4.95123e-006 -27.0002 1.23597 -0.967924 6.29207e-007 8.2555e-006 3.00466 -8.03032 -4.95137 -0.697744 175.892 18.9473 -0.0405606 180 7.01586e-015 179.108 175.753 20.2386 -179.775 -4.58679e-006 -4.49276e-006 0.281815 -18.349 68.3479 19.8342 8.13649 25.2326 -3.48773 -177.091 15.8419 0.0591663 4.54188e-006 -4.6773e-006 -0.846494 -1.91589 -22.2114 0.40084 1.26356e-006 7.58204e-007 -0.394229 21.414 73.1542 -24.7386 -8.14098 25.2327 3.48156 
49.8891 86.8619 21.0937 0.529793 3.6263 -4.09589 1.20953 -2.13332 1.02706 2.44458 -0.25599 1.92598 2.42145 1.38784 1.88552 -18.563 3.64686 0.17076 13.2807 9.22321 -3.8822 49.9175 -6.8701 -3.84848 135.474 44.2528 -29.7964 6.37058e-007 -3.35235e-006 -1.951e-006 27.9612 0.198186 1.55806 1.10181e-005 1.46842e-006 -3.03038 8.03042 -4.95137 0.697722 -79.4355 -8.73498 5.76491 -101.721 40.6148 -3.39324 -1.12596e-006 3.74549e-006 4.95123e-006 -26.9538 1.17884 -0.981723 6.29207e-007 8.2555e-006 3.0046 -8.03032 -4.95137 -0.697744 175.889 18.939 -0.0350631 180 7.01586e-015 179.108 175.751 20.2356 -179.774 -4.58679e-006 -4.49276e-006 0.281815 -18.3525 68.3485 19.8336 8.13649 25.2326 -3.48773 -177.095 15.832 0.0613913 4.54188e-006 -4.6773e-006 -0.846494 -1.91608 -22.2013 0.400455 1.26356e-006 7.58204e-007 -0.39413 21.4091 73.1499 -24.733 -8.14098 25.2327 3.48156 
49.8886 86.8656 21.0973 0.532377 3.62149 -4.09412 1.20958 -2.13277 1.02577 2.4451 -0.25128 1.92457 2.42159 1.39255 1.88411 -18.5658 3.64774 0.170778 13.2935 9.23098 -3.88376 49.9164 -6.86208 -3.84247 135.381 44.2047 -29.6095 6.37058e-007 -3.35235e-006 -1.951e-006 27.9389 0.198227 1.52358 1.10181e-005 1.46842e-006 -3.03155 8.03042 -4.95137 0.697722 -79.4314 -8.74043 5.76704 -101.662 40.5241 -3.52845 -1.12596e-006 3.74549e-006 4.95123e-006 -26.908 1.12019 -0.996589 6.29207e-007 8.2555e-006 3.00451 -8.03032 -4.95137 -0.697744 175.886 18.9303 -0.029564 180 7.01586e-015 179.108 175.748 20.2324 -179.774 -4.58679e-006 -4.49276e-006 0.281815 -18.3558 68.349 19.8328 8.13649 25.2326 -3.48773 -177.099 15.8218 0.063942 4.54188e-006 -4.6773e-006 -0.846494 -1.91606 -22.1909 0.400137 1.26356e-006 7.58204e-007 -0.394041 21.404 73.1455 -24.7272 -8.14098 25.2327 3.48156 
49.8828 86.865 21.1081 0.53497 3.61655 -4.09245 1.20962 -2.13223 1.02442 2.44562 -0.246465 1.92307 2.42172 1.39737 1.88261 -18.5688 3.64837 0.170836 13.3069 9.23882 -3.88531 49.9151 -6.85387 -3.83631 135.29 44.1563 -29.4229 6.37058e-007 -3.35235e-006 -1.951e-006 27.9164 0.198269 1.48911 1.10182e-005 1.46842e-006 -3.0327 8.03042 -4.95137 0.697722 -79.4272 -8.74604 5.76923 -101.604 40.433 -3.66292 -1.12596e-006 3.74549e-006 4.95123e-006 -26.8626 1.06046 -1.0122 6.29207e-007 8.2555e-006 3.0044 -8.03032 -4.95137 -0.697744 175.883 18.9215 -0.024064 180 7.01586e-015 179.108 175.746 20.2289 -179.773 -4.58679e-006 -4.49276e-006 0.281815 -18.3591 68.3494 19.832 8.13649 25.2326 -3.48773 -177.103 15.8113 0.0667205 4.54188e-006 -4.6773e-006 -0.846494 -1.91589 -22.1802 0.399865 1.26356e-006 7.58204e-007 -0.393961 21.3988 73.141 -24.7213 -8.14098 25.2327 3.48156 
